<svg xmlns="http://www.w3.org/2000/svg" width="90.048" height="80.419" viewBox="0 0 90.048 80.419"><defs><style>.a{fill:#e70;}</style></defs><path class="a" d="M-12955.992-213h-70.016a9.9,9.9,0,0,1-8.666-5.008,9.9,9.9,0,0,1,.014-10.005l35.007-60.419a9.9,9.9,0,0,1,8.653-4.987,9.9,9.9,0,0,1,8.653,4.987l35.007,60.419a9.9,9.9,0,0,1,.011,10.007A9.9,9.9,0,0,1-12955.992-213Zm-30.029-23.956-9.715,0v7.994h9.715v-8Zm.02-27.376-10.17.013v4.208l2.563,18.557h5.1l2.51-18.632v-4.146Z" transform="translate(13036.024 293.418)"/></svg>